<?xml version="1.0" encoding="utf-8"?>
<!-- Generator: Adobe Illustrator 16.0.4, SVG Export Plug-In . SVG Version: 6.00 Build 0)  -->
<!DOCTYPE svg PUBLIC "-//W3C//DTD SVG 1.1//EN" "http://www.w3.org/Graphics/SVG/1.1/DTD/svg11.dtd">
<svg version="1.1" id="Layer_1" xmlns="http://www.w3.org/2000/svg" xmlns:xlink="http://www.w3.org/1999/xlink" x="0px" y="0px"
	 width="283.439px" height="105.12px" viewBox="0 0 283.439 105.12" enable-background="new 0 0 283.439 105.12"
	 xml:space="preserve">
<g>
	<path d="M0,105.12C0,70.08,0,35.039,0,0c94.479,0,188.96,0,283.439,0c0,35.039,0,70.08,0,105.12
		C188.96,105.12,94.48,105.12,0,105.12z M141.863,102.729c45.679,0,91.358,0,137.037,0c0.36,0,0.725-0.038,1.079,0.007
		c0.927,0.119,1.161-0.31,1.145-1.173c-0.057-3.079-0.062-6.158-0.072-9.238c-0.062-20.438-0.121-40.875-0.178-61.312
		c-0.024-9.04-0.042-18.079-0.063-27.118c-0.003-1.667-0.003-1.667-1.696-1.667c-91.598,0-183.196,0-274.793,0
		c-1.688,0-1.691,0.002-1.691,1.669c-0.001,32.359-0.002,64.719,0,97.078c0,1.938-0.196,1.753,1.716,1.753
		C50.186,102.73,96.024,102.729,141.863,102.729z"/>
	<path fill-rule="evenodd" clip-rule="evenodd" d="M8.666,96.437c0-13.425,0-26.734,0-40.155c88.686,0,177.33,0,266.065,0
		c0,13.371,0,26.707,0,40.155C186.079,96.437,97.437,96.437,8.666,96.437z M143.852,88.872c0.633,0,1.187-0.052,1.727,0.011
		c1.067,0.123,1.356-0.311,1.335-1.357c-0.064-3.317-0.027-6.637-0.021-9.954c0.003-1.765,0.752-3.185,2.145-4.219
		c1.383-1.027,2.968-1.229,4.548-0.573c1.402,0.581,1.762,1.891,1.779,3.272c0.051,3.876,0.1,7.753,0.066,11.629
		c-0.009,1.108,0.508,1.265,1.392,1.197c0.792-0.061,1.716,0.256,1.669-1.159c-0.081-2.437-0.038-4.877-0.015-7.316
		c0.015-1.436-0.038-2.891,0.171-4.304c0.363-2.46,2.597-3.895,5.375-3.625c2.041,0.198,2.982,1.496,3.007,4.147
		c0.003,0.359,0.001,0.719,0.001,1.079c0,3.358,0.022,6.717-0.015,10.074c-0.009,0.831,0.257,1.189,1.094,1.103
		c0.316-0.033,0.642-0.031,0.959-0.003c0.782,0.069,1.039-0.274,1.035-1.048c-0.027-4.358,0.01-8.717-0.026-13.074
		c-0.015-1.783-0.698-3.266-2.324-4.191c-2.726-1.552-6.826-0.946-8.982,1.327c-0.238,0.251-0.476,0.501-0.723,0.762
		c-2.814-3.898-6.089-3.944-11.175-0.219c-0.158-0.739-0.085-1.853-0.532-2.131c-0.595-0.37-1.595-0.091-2.488-0.091
		C143.852,76.413,143.852,82.514,143.852,88.872z M85.938,70.803c-0.123-1.857-0.797-3.321-1.824-4.628
		c-3.879-4.931-12.826-5.106-17.367-0.356c-4.342,4.544-4.859,13.822-1.203,19.125c4.02,5.831,12.916,5.494,16.736,2.337
		c2.485-2.054,3.658-4.736,3.927-8.003c-1.175,0-2.228,0-3.29,0c-0.099,0.416-0.185,0.763-0.263,1.11
		c-0.852,3.791-3.012,5.815-6.632,6.214c-3.424,0.376-6.695-1.364-8.141-4.535c-1.813-3.98-1.904-8.073-0.096-12.072
		c1.49-3.299,4.255-4.802,7.819-4.68c3.278,0.113,5.75,1.51,6.819,4.837c0.085,0.265,0.443,0.601,0.699,0.622
		C84.025,70.85,84.938,70.803,85.938,70.803z M177.482,75.94c0.261-1.292,0.646-2.478,1.966-2.995
		c1.74-0.682,3.518-0.728,5.27-0.077c1.199,0.446,1.657,1.457,1.653,2.668c-0.003,1.221-0.844,1.729-1.885,2
		c-0.424,0.111-0.859,0.176-1.288,0.271c-2.176,0.486-4.416,0.789-6.509,1.513c-2.229,0.771-3.024,2.68-2.941,4.985
		c0.08,2.215,1.073,3.818,3.136,4.49c3.062,0.997,5.993,0.707,8.617-1.336c0.292-0.228,0.584-0.455,0.914-0.712
		c0.686,2.854,2.181,2.723,4.078,2.409c0.948-0.156,1.119-1.004,0.645-2.556c-1.463,0.002-1.681-0.171-1.696-1.622
		c-0.037-3.559-0.019-7.117-0.062-10.675c-0.023-1.875-0.955-3.282-2.697-3.877c-3.128-1.067-6.297-1.099-9.316,0.426
		c-1.917,0.969-3.021,3.135-2.727,5.088C175.534,75.94,176.441,75.94,177.482,75.94z M98.091,69.729
		c-4.501,0.032-7.644,2.431-8.67,6.778c-0.298,1.265-0.409,2.622-0.325,3.918c0.245,3.769,1.758,6.812,5.476,8.289
		c3.56,1.414,7.809,0.539,10.213-2.064c2.06-2.229,2.583-4.981,2.467-7.904C107.034,73.281,103.377,69.69,98.091,69.729z
		 M130.992,89.29c4.537,0.001,7.678-2.255,8.736-6.504c0.359-1.446,0.492-3.022,0.357-4.506c-0.584-6.446-5.344-9.678-11.679-8.199
		c-4.118,0.962-5.954,4.073-6.378,8.062C121.354,84.491,124.881,89.396,130.992,89.29z M197.513,72.9
		c-0.134-0.085-0.269-0.17-0.402-0.256c0-0.42-0.048-0.848,0.01-1.26c0.166-1.19-0.524-1.271-1.441-1.257
		c-0.879,0.013-1.492,0.008-1.479,1.229c0.062,5.434,0.061,10.867,0.002,16.3c-0.014,1.214,0.597,1.271,1.482,1.228
		c0.811-0.04,1.673,0.218,1.633-1.184c-0.088-3.073-0.041-6.151-0.021-9.228c0.011-1.633,0.34-3.18,1.485-4.44
		c1.294-1.422,3.832-2.025,5.643-1.312c1.927,0.761,2.268,2.362,2.247,4.207c-0.038,3.516-0.013,7.031-0.008,10.547
		c0,0.425,0.035,0.85,0.054,1.281c1.061,0,1.99,0,2.969,0c0-4.663,0.098-9.213-0.042-13.755c-0.069-2.244-1.146-4.111-3.462-4.847
		c-2.481-0.788-6.359-0.788-8.473,2.174C197.598,72.486,197.576,72.709,197.513,72.9z M212.483,72.893c0.607,0,1.16,0.051,1.7-0.011
		c1.062-0.12,1.458,0.229,1.431,1.371c-0.076,3.275-0.024,6.553-0.027,9.829c-0.004,4.048,0.703,4.768,4.716,4.788
		c2.279,0.012,2.425-0.166,2.01-2.462c-0.007-0.035-0.047-0.063-0.177-0.229c-0.323,0-0.751,0.006-1.18,0
		c-1.986-0.027-2.299-0.334-2.303-2.305c-0.007-2.837-0.002-5.674-0.002-8.51c0-2.454,0.001-2.492,2.455-2.453
		c0.938,0.015,1.326-0.182,1.347-1.233c0.023-1.19-0.288-1.737-1.533-1.54c-0.312,0.049-0.644-0.029-0.956,0.016
		c-1.082,0.156-1.392-0.323-1.333-1.358c0.08-1.377,0.021-2.762,0.021-4.173c-1.1,0-2,0-3.063,0c0,1.34,0.002,2.606-0.001,3.873
		c-0.002,1.645-0.003,1.64-1.603,1.654c-0.498,0.005-0.997,0.043-1.501,0.065C212.483,71.164,212.483,71.95,212.483,72.893z
		 M120.648,72.868c0-0.857,0.068-1.658-0.037-2.436c-0.035-0.261-0.512-0.664-0.783-0.66c-2.036,0.024-3.705,0.855-4.943,2.494
		c-0.34,0.45-0.658,0.917-1.189,1.66c0-1.091-0.07-1.813,0.016-2.518c0.142-1.173-0.476-1.288-1.422-1.285
		c-0.965,0.003-1.527,0.079-1.511,1.323c0.068,5.355,0.062,10.713,0.003,16.068c-0.014,1.173,0.445,1.397,1.475,1.383
		c0.994-0.015,1.634-0.056,1.608-1.373c-0.056-2.874-0.024-5.756,0.132-8.626c0.188-3.41,1.962-5.282,5.265-5.826
		C119.652,73.009,120.047,72.957,120.648,72.868z"/>
	<path fill-rule="evenodd" clip-rule="evenodd" d="M122.631,37.736c0-9.871,0-19.742,0-29.726c2.871,0,5.678,0,8.578,0
		c0,14.393,0,28.728,0,43.199c-0.427,0.025-0.85,0.072-1.273,0.074c-2.641,0.007-5.285-0.098-7.917,0.044
		c-1.407,0.075-2.021-0.493-2.613-1.655c-5.12-10.043-10.3-20.054-15.464-30.073c-0.178-0.345-0.372-0.683-0.814-1.003
		c0,0.448,0,0.896,0,1.344c0,9.959-0.016,19.917,0.026,29.875c0.005,1.133-0.265,1.557-1.458,1.502
		c-2.035-0.096-4.078-0.059-6.117-0.018c-0.885,0.019-1.268-0.193-1.266-1.195c0.03-13.678,0.026-27.355,0.002-41.033
		c-0.001-0.906,0.309-1.164,1.183-1.155c3.72,0.038,7.439,0.057,11.157-0.011c0.996-0.018,1.395,0.427,1.777,1.217
		c4.461,9.207,8.947,18.403,13.428,27.6c0.174,0.356,0.363,0.704,0.547,1.056C122.48,37.764,122.557,37.75,122.631,37.736z"/>
	<path fill-rule="evenodd" clip-rule="evenodd" d="M21.295,35.704c0.038,0.437,0.07,0.708,0.084,0.979
		c0.197,4.167,1.997,6.585,5.934,7.945c2.889,0.998,5.816,1.033,8.727,0.166c3.655-1.089,5.283-4.197,4.277-7.881
		c-0.436-1.596-1.491-2.618-2.975-3.012c-2.074-0.551-4.201-0.941-6.33-1.23c-3.006-0.409-6.063-0.493-9.047-1.016
		c-7.011-1.229-10.028-5.975-9.833-12.994c0.137-4.93,2.749-8.139,7.118-9.847c7.808-3.051,15.713-3.053,23.482,0.165
		c5.193,2.151,6.941,7.359,6.381,12.629c-2.807,0-5.633,0.014-8.457-0.032c-0.197-0.003-0.52-0.439-0.562-0.71
		c-0.852-5.254-3.657-7.682-8.971-7.675c-2.279,0.003-4.564-0.007-6.635,1.215s-3.248,2.954-3.067,5.409
		c0.18,2.449,1.646,4.102,3.893,4.639c2.698,0.645,5.512,0.79,8.266,1.214c2.872,0.442,5.749,0.878,8.588,1.482
		c1.062,0.226,2.068,0.847,3.021,1.419c2.387,1.438,3.976,3.495,4.241,6.328c0.178,1.898,0.323,3.839,0.134,5.726
		c-0.496,4.954-3.724,7.845-8.03,9.583c-7.081,2.861-14.272,2.602-21.281-0.18c-5.395-2.143-8.534-7.715-8.048-13.491
		c0.025-0.295,0.45-0.79,0.698-0.796C15.654,35.684,18.41,35.704,21.295,35.704z"/>
	<path fill-rule="evenodd" clip-rule="evenodd" d="M139.496,8.022c0.365-0.036,0.637-0.085,0.908-0.086
		c5.716-0.005,11.435-0.118,17.146,0.027c5.873,0.149,10.993,2.106,14.418,7.201c2.305,3.429,3.29,7.355,3.656,11.41
		c0.455,5.031-0.088,9.959-1.892,14.729c-2.153,5.691-6.318,8.837-12.243,9.551c-3.16,0.381-6.375,0.363-9.567,0.418
		c-3.796,0.064-7.595-0.002-11.392,0.027c-0.794,0.006-1.131-0.186-1.129-1.063c0.024-13.831,0.018-27.661,0.021-41.492
		C139.424,8.546,139.463,8.349,139.496,8.022z M148.309,29.828c0,4.354,0.01,8.709-0.01,13.064
		c-0.003,0.703,0.105,1.122,0.961,1.109c2.676-0.043,5.357,0.072,8.029-0.047c4.936-0.221,7.598-2.432,8.811-7.261
		c1.354-5.393,0.853-10.706-0.966-15.905c-0.922-2.635-2.872-4.354-5.609-4.639c-3.322-0.346-6.689-0.248-10.035-0.396
		c-0.978-0.043-1.206,0.338-1.198,1.248C148.33,21.277,148.309,25.553,148.309,29.828z"/>
	<path fill-rule="evenodd" clip-rule="evenodd" d="M244.573,33.551c-0.038,0.605-0.076,0.951-0.079,1.297
		c-0.038,5.037-0.103,10.073-0.081,15.109c0.005,1.067-0.315,1.383-1.359,1.35c-2.237-0.068-4.478-0.043-6.716-0.008
		c-0.796,0.012-1.141-0.21-1.139-1.08c0.021-13.834,0.015-27.668,0.019-41.502c0-0.196,0.036-0.393,0.067-0.703
		c2.979,0,5.943,0,9.156,0c0,5.28,0,10.554,0,15.828c0.112,0.033,0.224,0.066,0.336,0.099c0.602-0.558,1.216-1.103,1.803-1.675
		c4.663-4.551,9.316-9.111,13.987-13.653c0.297-0.289,0.716-0.633,1.082-0.638c3.745-0.047,7.492-0.029,11.405,0.239
		c-6.767,6.802-13.533,13.606-20.43,20.541c7.362,7.418,14.691,14.805,22.202,22.371c-0.523,0.078-0.806,0.154-1.087,0.154
		c-3.398,0.009-6.798,0.046-10.195-0.031c-0.586-0.014-1.284-0.397-1.722-0.824c-5.468-5.329-10.896-10.697-16.336-16.055
		C245.263,34.148,245.019,33.948,244.573,33.551z"/>
	<path fill-rule="evenodd" clip-rule="evenodd" d="M92.049,51.272c-3.036,0-5.908,0.028-8.777-0.042
		c-0.302-0.008-0.725-0.549-0.861-0.927c-0.947-2.63-1.863-5.273-2.726-7.935c-0.265-0.816-0.662-1.097-1.534-1.09
		c-4.999,0.045-9.999,0.041-14.998,0.002c-0.816-0.006-1.201,0.23-1.456,1.02c-0.86,2.66-1.818,5.289-2.698,7.943
		c-0.246,0.746-0.598,1.08-1.447,1.062c-2.67-0.058-5.342-0.021-8.186-0.021c0.123-0.493,0.18-0.829,0.289-1.148
		c4.676-13.687,9.363-27.368,14.018-41.062c0.307-0.903,0.729-1.219,1.703-1.201c3.6,0.066,7.199,0.048,10.799,0.009
		c0.842-0.009,1.263,0.228,1.55,1.074c4.688,13.808,9.412,27.605,14.124,41.406C91.923,50.58,91.949,50.815,92.049,51.272z
		 M70.779,16.715c-0.09,0.002-0.18,0.006-0.271,0.008c-1.916,5.574-3.831,11.146-5.786,16.832c4.062,0,7.883,0,11.872,0
		C74.633,27.875,72.706,22.295,70.779,16.715z"/>
	<path fill-rule="evenodd" clip-rule="evenodd" d="M195.674,41.596c0.75-2.176,1.509-4.35,2.247-6.529
		c2.932-8.662,5.87-17.322,8.762-25.997c0.309-0.924,0.74-1.223,1.704-1.195c2.509,0.072,5.021,0.024,7.712,0.024
		c-0.288,0.912-0.515,1.664-0.761,2.41c-4.396,13.266-8.805,26.528-13.172,39.802c-0.285,0.864-0.646,1.21-1.579,1.196
		c-3.477-0.052-6.955-0.033-10.433-0.012c-0.677,0.004-1.08-0.135-1.319-0.868c-4.555-13.927-9.138-27.845-13.713-41.766
		c-0.061-0.183-0.095-0.375-0.169-0.671c0.413-0.034,0.753-0.085,1.092-0.087c2.279-0.007,4.559,0.043,6.836-0.026
		c0.9-0.027,1.227,0.333,1.493,1.128c3.475,10.333,6.981,20.654,10.481,30.978c0.179,0.527,0.373,1.049,0.561,1.573
		C195.502,41.568,195.588,41.582,195.674,41.596z"/>
	<path fill-rule="evenodd" clip-rule="evenodd" d="M219.172,7.905c2.723,0,5.391-0.019,8.059,0.032
		c0.234,0.004,0.514,0.433,0.672,0.719c0.103,0.184,0.024,0.469,0.024,0.709c0.001,13.516-0.011,27.031,0.027,40.547
		c0.004,1.131-0.354,1.438-1.436,1.4c-2.156-0.074-4.317-0.037-6.477-0.017c-0.688,0.007-1-0.204-0.999-0.96
		c0.021-13.955,0.021-27.911,0.027-41.866C219.07,8.352,219.111,8.235,219.172,7.905z"/>
	<path fill-rule="evenodd" clip-rule="evenodd" d="M186.158,79.563c0.999,4.756-2.229,8.003-6.867,6.882
		c-1.398-0.338-2.129-1.088-2.24-2.298c-0.133-1.438,0.427-2.581,1.774-3.051c1.229-0.428,2.544-0.616,3.827-0.88
		C183.815,79.978,184.988,79.779,186.158,79.563z"/>
	<path fill-rule="evenodd" clip-rule="evenodd" d="M92.334,79.557c-0.016-1.712,0.322-3.327,1.318-4.759
		c2.293-3.293,7.254-3.141,9.217,0.362c1.595,2.846,1.606,5.839,0.035,8.692c-2.006,3.643-7.309,3.734-9.389,0.136
		c-0.748-1.298-1.006-2.879-1.486-4.33C92.131,79.624,92.232,79.591,92.334,79.557z"/>
	<path fill-rule="evenodd" clip-rule="evenodd" d="M137.127,79.578c-0.402,1.419-0.615,2.776-1.166,3.979
		c-0.906,1.979-2.623,3.002-4.781,3.044c-2.205,0.043-3.984-0.929-4.977-2.93c-1.418-2.861-1.452-5.81,0.186-8.586
		c2.179-3.691,7.578-3.523,9.506,0.308C136.536,76.669,136.729,78.172,137.127,79.578z"/>
</g>
</svg>
