<?xml version="1.0" encoding="utf-8"?>
<!-- Generator: Adobe Illustrator 16.0.4, SVG Export Plug-In . SVG Version: 6.00 Build 0)  -->
<!DOCTYPE svg PUBLIC "-//W3C//DTD SVG 1.1//EN" "http://www.w3.org/Graphics/SVG/1.1/DTD/svg11.dtd">
<svg version="1.1" id="Layer_1" xmlns="http://www.w3.org/2000/svg" xmlns:xlink="http://www.w3.org/1999/xlink" x="0px" y="0px"
	 width="64px" height="64px" viewBox="-854.5 572.5 64 64" enable-background="new -854.5 572.5 64 64" xml:space="preserve">
<path d="M-821.5,594.5v30h-4v-30H-821.5z M-825.5,586.5v4h4v-4H-825.5z M-791.5,604c0-17.369-14.131-31.5-31.5-31.5
	c-17.37,0-31.5,14.131-31.5,31.5s14.13,31.5,31.5,31.5C-805.631,635.5-791.5,621.369-791.5,604z M-795.5,604
	c0,15.163-12.337,27.5-27.5,27.5s-27.5-12.337-27.5-27.5c0-15.164,12.337-27.5,27.5-27.5S-795.5,588.836-795.5,604z"/>
</svg>
