<?xml version="1.0" encoding="utf-8"?>
<!-- Generator: Adobe Illustrator 16.0.4, SVG Export Plug-In . SVG Version: 6.00 Build 0)  -->
<!DOCTYPE svg PUBLIC "-//W3C//DTD SVG 1.1//EN" "http://www.w3.org/Graphics/SVG/1.1/DTD/svg11.dtd">
<svg version="1.1" id="Layer_1" xmlns="http://www.w3.org/2000/svg" xmlns:xlink="http://www.w3.org/1999/xlink" x="0px" y="0px"
	 width="90px" height="33px" viewBox="110.219 85.06 90 33" enable-background="new 110.219 85.06 90 33" xml:space="preserve">
<path fill="#E10717" d="M110.219,85.06v33h90v-33H110.219z M111.041,117.316V85.772h88.351l0.008,31.544H111.041z M125.454,89.516
	c0.375,0.674,0.375,1.512,0.408,2.319h-2.89c0-0.673-0.17-1.277-0.646-1.78c-0.853-1.069-2.278-0.907-3.502-0.807
	c-0.612,0.134-1.295,0.47-1.601,1.041c-0.272,0.403-0.272,1.008-0.135,1.444c0.655,1.566,2.891,1.249,4.84,1.487
	c0.939,0.115,2.785,0.413,3.697,1.872c0.544,1.243,0.544,3.158-0.271,4.3c-2.321,2.771-7.022,2.079-8.603,1.411
	c-1.582-0.668-2.449-2.016-2.619-3.459c-0.034-0.336-0.034-0.707-0.034-1.076h2.886c0,0.705,0.106,1.413,0.514,1.915
	c0.68,0.807,1.905,1.209,3.129,1.141c0.952-0.066,1.938-0.334,2.38-1.276c0.204-0.569,0.166-1.234-0.11-1.766
	c-0.278-0.532-1.25-0.819-1.999-0.886c-2.312-0.404-5.304,0.134-6.46-2.387c-0.544-1.297-0.45-3.021,0.204-3.896
	c1.796-2.402,6.832-2.229,8.875-1.345C124.6,88.24,125.114,88.745,125.454,89.516z M168.625,87.558l3.687,10.761l3.689-10.761h2.822
	l-4.553,13.584l-3.979-0.002l-4.521-13.582H168.625z M182.576,101.14h-2.789V87.558h2.789V101.14z M187.815,87.558l0.012,5.184
	l5.361-5.173h3.774l-6.562,6.517l7.085,7.055l-3.855-0.001l-5.806-5.665l-0.009,5.666h-2.89V87.558H187.815z M144.441,87.569
	c1.6,3.191,3.096,6.383,4.728,9.574l-0.002-9.586l2.722,0.012v13.571h-3.468l-5.475-10.514l-0.011,10.514h-2.744V87.569H144.441z
	 M159.679,87.563c2.031-0.001,3.89,0.448,5.197,2.357c1.53,2.519,1.496,6.483,0.034,9.036c-1.212,1.86-3.105,2.183-5.23,2.178
	c0,0.005-5.174,0.006-5.174,0.006V87.569L159.679,87.563z M157.294,89.988v8.902c0,0,2.387,0.01,2.387,0.013
	c1.064,0,2.063-0.16,2.782-1.087c1.054-1.681,0.884-4.368,0.238-6.183c-0.528-1.419-1.738-1.646-3.045-1.653
	C159.68,89.977,157.294,89.988,157.294,89.988z M139.454,101.142l-2.951-0.002l-1.087-3.124h-5.509l-1.089,3.127l-2.931-0.001
	l4.704-13.585h4.17L139.454,101.142z M134.578,95.631l-1.925-5.51l-1.92,5.51H134.578z M143.241,110.03
	c0,1.424-0.83,2.22-1.855,2.22c-1.025,0-1.854-0.796-1.854-2.22c0-1.434,0.829-2.231,1.854-2.231
	C142.411,107.798,143.241,108.596,143.241,110.03z M153.69,110.03c0,1.424-0.831,2.22-1.855,2.22c-1.025,0-1.854-0.796-1.854-2.22
	c0-1.434,0.829-2.231,1.854-2.231C152.859,107.798,153.69,108.596,153.69,110.03z M167.619,110.327
	c0.657-0.114,1.393-0.127,1.774-0.399v0.99c0,0.536-0.531,1.332-1.82,1.332c-0.6,0-1.151-0.229-1.151-0.865
	C166.422,110.667,166.973,110.44,167.619,110.327z M112.973,102.718v12.631h84.499v-12.631H112.973z M134.058,113.159
	c-2.558,0-3.801-1.867-3.801-4.233c0-2.354,1.359-4.276,3.894-4.276c1.716,0,3.132,0.909,3.386,2.637h-1.094
	c-0.23-1.147-1.163-1.728-2.304-1.728c-1.958,0-2.787,1.593-2.787,3.289c0,1.854,0.83,3.402,2.799,3.402
	c1.44,0,2.269-1.002,2.373-2.345h1.094C137.41,111.929,136.131,113.159,134.058,113.159z M141.385,113.101
	c-1.889,0-2.891-1.353-2.891-3.071c0-1.73,1.002-3.083,2.891-3.083c1.89,0,2.892,1.353,2.892,3.083
	C144.277,111.749,143.275,113.101,141.385,113.101z M148.529,107.97c-1.577,0-2.152,0.888-2.152,2.379v2.617h-0.979v-5.883h0.921
	v1.241h0.023c0.472-0.946,1.129-1.412,2.188-1.378V107.97z M151.835,113.101c-1.89,0-2.891-1.353-2.891-3.071
	c0-1.73,1.001-3.083,2.891-3.083s2.891,1.353,2.891,3.083C154.725,111.749,153.724,113.101,151.835,113.101z M164.231,112.966
	h-0.979v-3.857c0-0.729-0.196-1.311-1.153-1.311c-0.943,0-1.554,0.594-1.554,1.503v3.665h-0.979v-3.857
	c0-0.763-0.242-1.311-1.117-1.311c-1.164,0-1.59,1.06-1.59,1.503v3.665h-0.979v-5.883h0.921v0.863h0.022
	c0.438-0.661,1.106-1,1.924-1c0.727,0,1.395,0.283,1.637,1c0.402-0.626,1.105-1,1.865-1c1.187,0,1.981,0.489,1.981,1.705V112.966z
	 M170.981,112.943c-0.172,0.103-0.391,0.158-0.703,0.158c-0.506,0-0.829-0.271-0.829-0.909c-0.54,0.626-1.266,0.909-2.094,0.909
	c-1.084,0-1.972-0.477-1.972-1.647c0-1.333,1.003-1.618,2.018-1.812c1.083-0.204,2.002-0.135,2.002-0.864
	c0-0.843-0.701-0.979-1.324-0.979c-0.828,0-1.438,0.253-1.484,1.116h-0.979c0.058-1.457,1.197-1.968,2.521-1.968
	c1.071,0,2.235,0.239,2.235,1.615v3.028c0,0.453,0,0.659,0.311,0.659c0.081,0,0.172-0.014,0.299-0.058V112.943z M176.823,112.966
	h-0.979v-3.982c0-0.717-0.461-1.186-1.209-1.186c-1.187,0-1.765,0.786-1.765,1.844v3.324h-0.979v-5.883h0.921v0.933h0.023
	c0.416-0.73,1.084-1.069,1.938-1.069c1.563,0,2.049,0.887,2.049,2.148V112.966z M180.844,107.935h-1.188v3.655
	c0,0.443,0.128,0.522,0.738,0.522h0.449v0.854h-0.749c-1.014,0-1.417-0.206-1.417-1.285v-3.746h-1.014v-0.852h1.014v-1.765h0.979
	v1.765h1.188V107.935z"/>
</svg>
