<?xml version="1.0" encoding="utf-8"?>
<!-- Generator: Adobe Illustrator 16.0.4, SVG Export Plug-In . SVG Version: 6.00 Build 0)  -->
<!DOCTYPE svg PUBLIC "-//W3C//DTD SVG 1.1//EN" "http://www.w3.org/Graphics/SVG/1.1/DTD/svg11.dtd">
<svg version="1.1" id="Layer_1" xmlns="http://www.w3.org/2000/svg" xmlns:xlink="http://www.w3.org/1999/xlink" x="0px" y="0px"
	 width="64px" height="64px" viewBox="-854.5 572.5 64 64" enable-background="new -854.5 572.5 64 64" xml:space="preserve">
<path d="M-832,576.5c10.201,0,18.5,8.299,18.5,18.5s-8.299,18.5-18.5,18.5c-10.202,0-18.5-8.299-18.5-18.5S-842.202,576.5-832,576.5
	 M-832,572.5c-12.427,0-22.5,10.074-22.5,22.5s10.073,22.5,22.5,22.5c12.426,0,22.5-10.074,22.5-22.5S-819.574,572.5-832,572.5
	L-832,572.5z M-794.6,629.705l-15.219-15.217l-2.828,2.828l15.219,15.217L-794.6,629.705z"/>
</svg>
